<svg width="118" height="94" viewBox="0 0 118 94" fill="none" xmlns="http://www.w3.org/2000/svg">
<path d="M99.875 0H17.625C12.9506 0 8.46757 1.85691 5.16224 5.16224C1.85691 8.46757 0 12.9506 0 17.625V76.375C0 81.0494 1.85691 85.5324 5.16224 88.8378C8.46757 92.1431 12.9506 94 17.625 94H99.875C104.549 94 109.032 92.1431 112.338 88.8378C115.643 85.5324 117.5 81.0494 117.5 76.375V17.625C117.5 12.9506 115.643 8.46757 112.338 5.16224C109.032 1.85691 104.549 0 99.875 0ZM95.9387 11.75L58.75 39.6562L21.5612 11.75H95.9387ZM99.875 82.25H17.625C16.0669 82.25 14.5725 81.631 13.4707 80.5293C12.369 79.4275 11.75 77.9331 11.75 76.375V19.0937L55.225 51.7C56.2419 52.4627 57.4788 52.875 58.75 52.875C60.0212 52.875 61.2581 52.4627 62.275 51.7L105.75 19.0937V76.375C105.75 77.9331 105.131 79.4275 104.029 80.5293C102.927 81.631 101.433 82.25 99.875 82.25Z" fill="#F5FBEF"/>
</svg>
