<svg width="107" height="104" viewBox="0 0 107 104" fill="none" xmlns="http://www.w3.org/2000/svg">
<path d="M53.1144 0.00432H53.5162C63.2016 0.00432 72.265 2.65248 80.028 7.26192L79.7904 7.128C87.8731 11.8541 94.4179 18.3989 99.0101 26.231L99.144 26.4816C103.637 34.1237 106.289 43.3123 106.289 53.1187C106.289 76.4726 91.2427 96.3187 70.3166 103.481L69.9408 103.594C69.6686 103.68 69.3576 103.728 69.0379 103.728C68.3381 103.728 67.6901 103.494 67.1674 103.105L67.176 103.11C66.623 102.613 66.2774 101.896 66.2774 101.097C66.2774 101.075 66.2774 101.053 66.2774 101.036V101.04C66.2774 100.902 66.289 99.1368 66.312 95.7442C66.335 92.3515 66.3466 89.2497 66.3466 86.4389C66.3768 86.1149 66.3941 85.7434 66.3941 85.3632C66.3941 81.9418 64.9987 78.8486 62.748 76.6152C65.4178 76.3517 67.8283 75.911 70.1698 75.2976L69.8414 75.371C72.3168 74.6798 74.4768 73.7597 76.4813 72.5976L76.3474 72.671C78.5419 71.4614 80.3995 69.9235 81.9288 68.1005L81.9547 68.0702C83.5618 66.0139 84.8189 63.5947 85.5835 60.9638L85.6224 60.8126C86.5253 57.8621 87.0437 54.4709 87.0437 50.9587C87.0437 50.7643 87.0437 50.5656 87.0394 50.3712V50.4014C87.0394 50.3064 87.0437 50.1984 87.0437 50.0904C87.0437 44.699 84.9614 39.7958 81.5616 36.1368L81.5746 36.1498C82.3003 34.249 82.7194 32.0544 82.7194 29.7605C82.7194 26.9568 82.093 24.3043 80.9741 21.924L81.0216 22.0363C80.5248 21.9413 79.9589 21.8851 79.3757 21.8851C77.9328 21.8851 76.572 22.2221 75.3624 22.8182L75.4142 22.7966C72.9605 23.7038 70.861 24.732 68.8824 25.933L69.0466 25.8379L66.4157 27.4968C62.4326 26.3563 57.8578 25.6997 53.1317 25.6997C48.4056 25.6997 43.8307 26.3563 39.4934 27.5832L39.8434 27.4968C39.1061 26.9899 38.1254 26.3664 36.9014 25.6262C35.2901 24.7018 33.385 23.8075 31.4064 23.0558L31.1213 22.9608C29.8555 22.2955 28.3565 21.9067 26.7624 21.9067C26.2267 21.9067 25.6997 21.9499 25.1899 22.0363L25.2461 22.0277C24.1747 24.2914 23.5483 26.9482 23.5483 29.7518C23.5483 32.0458 23.9674 34.2446 24.7363 36.2707L24.6931 36.1454C21.3019 39.7915 19.224 44.6947 19.224 50.0861C19.224 50.1941 19.224 50.3064 19.2283 50.4144V50.3971C19.224 50.5656 19.224 50.76 19.224 50.9587C19.224 54.4536 19.7424 57.8318 20.7101 61.0114L20.6453 60.7651C21.4618 63.5429 22.7016 65.9578 24.3173 68.0789L24.2784 68.0227C25.8077 69.9019 27.6566 71.4485 29.7518 72.6105L29.8469 72.6581C31.7131 73.7467 33.8774 74.6669 36.1541 75.3105L36.3528 75.3581C38.3659 75.8981 40.7765 76.3387 43.2432 76.5849L43.4419 76.6022C41.58 78.4512 40.3402 80.9222 40.055 83.6784L40.0507 83.7302C39.1565 84.1666 38.1154 84.5208 37.031 84.7498L36.9403 84.767C35.8344 84.9874 34.5686 85.1126 33.2683 85.1126C33.1733 85.1126 33.0782 85.1126 32.9832 85.1126H32.9962C31.2941 85.0781 29.7302 84.5251 28.4386 83.6093L28.4645 83.6266C26.8618 82.5077 25.5658 81.0562 24.6586 79.367L24.6283 79.3022C23.773 77.8507 22.6454 76.6497 21.3106 75.7296L21.2717 75.7037C20.2997 74.9736 19.1549 74.4034 17.9194 74.0621L17.8502 74.0448L16.4678 73.8374C16.3685 73.8288 16.2518 73.8245 16.1352 73.8245C15.5304 73.8245 14.9558 73.9454 14.4331 74.1571L14.4634 74.1442C14.0947 74.3515 13.9795 74.6165 14.1178 74.939C14.2862 75.3106 14.4936 75.6302 14.7442 75.911L14.7398 75.9067C15.0034 76.2178 15.3014 76.4899 15.6254 76.7275L15.6384 76.7361L16.1222 77.0817C17.3448 77.7211 18.3514 78.611 19.116 79.6867L19.1333 79.7126C19.9584 80.7365 20.6842 81.8942 21.2674 83.1341L21.3106 83.2378L22.0018 84.8275C22.585 86.5642 23.6434 88.0157 25.0258 89.0654L25.0474 89.0827C26.3434 90.0936 27.9072 90.8194 29.6136 91.1477L29.6827 91.1563C31.1083 91.4328 32.7672 91.6056 34.4606 91.6402H34.4909C34.6853 91.6488 34.9099 91.6488 35.1389 91.6488C36.2664 91.6488 37.3723 91.5581 38.4523 91.381L38.3357 91.3982L39.9254 91.1217C39.9254 92.8757 39.937 94.9176 39.96 97.2475C39.983 99.5774 39.9946 100.835 39.9946 101.019V101.079C39.9946 101.879 39.649 102.596 39.096 103.092C38.5819 103.477 37.9339 103.71 37.2298 103.71C36.9058 103.71 36.5947 103.663 36.3053 103.572L36.3269 103.576C15.0336 96.2798 0 76.4338 0 53.0755C0 43.2778 2.64384 34.0978 7.26192 26.2094L7.12368 26.46C11.8498 18.3773 18.3946 11.8325 26.2267 7.24032L26.4773 7.1064C33.9898 2.63952 43.0445 0 52.7126 0H53.136H53.1144V0.00432ZM20.1096 76.3214C20.2478 75.9989 20.0866 75.7224 19.6258 75.492C19.165 75.3538 18.8654 75.3998 18.7272 75.6302C18.589 75.9528 18.7502 76.2293 19.211 76.4597C19.6258 76.7362 19.9253 76.6901 20.1096 76.3214ZM22.2566 78.6758C22.5792 78.4454 22.5331 78.0768 22.1184 77.5699C21.6576 77.1552 21.289 77.0861 21.0125 77.3625C20.6899 77.5929 20.736 77.9616 21.1507 78.4685C21.6086 78.9206 21.9773 78.9883 22.2566 78.6715V78.6758ZM24.3302 81.7862C24.745 81.4637 24.745 81.0259 24.3302 80.473C23.9616 79.8739 23.5699 79.7357 23.1552 80.0582C22.7405 80.2886 22.7405 80.7034 23.1552 81.3024C23.5699 81.9014 23.9616 82.0627 24.3302 81.7862ZM27.2333 84.6936C27.6019 84.325 27.5098 83.8872 26.9568 83.3803C26.4038 82.8273 25.943 82.7582 25.5744 83.173C25.1597 83.5416 25.2518 83.9793 25.8509 84.4862C26.4038 85.0392 26.8646 85.1026 27.2333 84.6763V84.6936ZM31.1774 86.4216C31.3157 85.9147 31.0162 85.5461 30.2789 85.3157C29.5877 85.1313 29.1499 85.2926 28.9656 85.7995C28.7813 86.3064 29.0808 86.652 29.8642 86.8363C30.5554 87.1157 30.9931 86.9774 31.1774 86.4216ZM35.5363 86.7672C35.5363 86.1682 35.1446 85.9147 34.3613 86.0069C33.624 86.0069 33.2554 86.2603 33.2554 86.7672C33.2554 87.3662 33.647 87.6197 34.4304 87.5275C35.1677 87.5304 35.5363 87.2741 35.5363 86.7672ZM39.5496 86.076C39.4574 85.5691 39.0427 85.3618 38.3054 85.4539C37.5682 85.5922 37.2456 85.9378 37.3378 86.4907C37.4299 87.0437 37.8446 87.228 38.5819 87.0437C39.3192 86.8594 39.6389 86.5368 39.5496 86.076Z" fill="#F5FBEF"/>
</svg>
