<svg width="89" height="89" viewBox="0 0 89 89" fill="none" xmlns="http://www.w3.org/2000/svg">
<path d="M80.9492 0H8.05077C3.6045 0 0 3.6045 0 8.05077V80.949C0 85.3955 3.6045 89 8.05077 89H80.949C85.3955 89 89 85.3955 89 80.949V8.05077C89 3.6045 85.3955 0 80.9492 0ZM27.5404 76.8485C27.5404 78.1425 26.4915 79.1914 25.1975 79.1914H15.2244C13.9304 79.1914 12.8815 78.1425 12.8815 76.8485V35.0415C12.8815 33.7475 13.9304 32.6986 15.2244 32.6986H25.1975C26.4915 32.6986 27.5404 33.7475 27.5404 35.0415V76.8485ZM20.2109 28.7577C14.9783 28.7577 10.7364 24.5158 10.7364 19.2832C10.7364 14.0506 14.9783 9.80864 20.2109 9.80864C25.4435 9.80864 29.6855 14.0506 29.6855 19.2832C29.6855 24.5158 25.4437 28.7577 20.2109 28.7577ZM79.6597 77.0372C79.6597 78.2268 78.6951 79.1914 77.5055 79.1914H66.8036C65.614 79.1914 64.6494 78.2268 64.6494 77.0372V57.4274C64.6494 54.502 65.5075 44.6083 57.0045 44.6083C50.4089 44.6083 49.0712 51.3803 48.8025 54.4193V77.0372C48.8025 78.2268 47.8382 79.1914 46.6483 79.1914H36.2978C35.1082 79.1914 34.1436 78.2268 34.1436 77.0372V34.8528C34.1436 33.6632 35.1082 32.6986 36.2978 32.6986H46.6483C47.838 32.6986 48.8025 33.6632 48.8025 34.8528V38.5002C51.2482 34.83 54.8827 31.9971 62.6213 31.9971C79.7577 31.9971 79.6597 48.0069 79.6597 56.8034V77.0372Z" fill="#F5FBEF"/>
</svg>
