<svg width="49" height="50" viewBox="0 0 49 50" fill="none" xmlns="http://www.w3.org/2000/svg">
<path opacity="0.2" d="M18.5534 49.292C17.7276 49.0963 17.0364 48.6383 16.0692 47.6461C14.4535 45.9885 13.1423 45.2985 10.8634 44.9061C8.49927 44.4991 7.44869 43.6205 6.81709 41.5216C6.03746 38.931 5.2226 37.6903 3.43218 36.3679C1.40115 34.8677 0.880046 33.5448 1.37578 31.1474C1.83493 28.927 1.65911 27.3483 0.726587 25.3186C-0.386037 22.8968 -0.248687 21.6027 1.33157 19.6186C2.78029 17.7997 3.23499 16.5973 3.45197 14.0119C3.67091 11.4028 4.39681 10.3324 6.53461 9.46612C8.31882 8.74318 9.84518 7.48815 10.6914 6.04824C11.67 4.38317 11.8128 4.19228 12.4191 3.73991C13.3975 3.00996 14.1886 2.80768 15.6952 2.90214C18.3122 3.06623 19.7148 2.75199 21.4723 1.60792C23.7637 0.116208 25.1531 0.116208 27.4446 1.60792C29.202 2.75199 30.6047 3.06623 33.2217 2.90214C35.6965 2.74694 36.7263 3.39662 38.2348 6.06485C38.9823 7.38713 40.5103 8.67406 42.1829 9.38973C44.5647 10.4091 45.2568 11.3395 45.4325 13.7573C45.6229 16.3758 46.1597 17.8398 47.5819 19.6186C49.1656 21.5992 49.3037 22.8945 48.1901 25.3186C47.2579 27.3483 47.0818 28.927 47.541 31.1474C48.0369 33.5448 47.5155 34.8677 45.4847 36.3679C43.6944 37.6903 42.8796 38.931 42.0998 41.5216C41.4682 43.6205 40.4176 44.4991 38.0535 44.9061C35.7697 45.2993 34.457 45.9914 32.8477 47.6515C31.0636 49.4911 29.7847 49.795 27.2905 48.9702C25.2505 48.296 23.6798 48.2931 21.6479 48.9602C20.2246 49.4273 19.466 49.5087 18.5534 49.292Z" fill="black"/>
<path d="M18.5534 48.8033C17.7276 48.6071 17.0364 48.1491 16.0692 47.1569C14.4535 45.4997 13.1423 44.8093 10.8634 44.4174C8.49927 44.0104 7.44869 43.1313 6.81709 41.0329C6.03746 38.4419 5.2226 37.2012 3.43218 35.8787C1.40115 34.3786 0.880046 33.0556 1.37578 30.6583C1.83493 28.4378 1.65911 26.8592 0.726587 24.8294C-0.386037 22.4077 -0.248687 21.1136 1.33157 19.1295C2.78029 17.3105 3.23499 16.1082 3.45197 13.5227C3.67091 10.9137 4.39681 9.84326 6.53461 8.97702C8.31882 8.25403 9.84518 6.999 10.6914 5.55909C11.67 3.89402 11.8128 3.70313 12.4191 3.25081C13.3975 2.52081 14.1886 2.31853 15.6952 2.41299C18.3122 2.57708 19.7148 2.26289 21.4723 1.11879C23.7637 -0.372928 25.1531 -0.372928 27.4446 1.11879C29.202 2.26289 30.6047 2.57708 33.2217 2.41299C35.6965 2.25779 36.7263 2.90748 38.2348 5.5757C38.9823 6.89803 40.5103 8.18491 42.1829 8.90063C44.5647 9.91998 45.2568 10.8504 45.4325 13.2682C45.6229 15.8866 46.1597 17.3507 47.5819 19.1295C49.1656 21.11 49.3037 22.4053 48.1901 24.8294C47.2579 26.8592 47.0818 28.4378 47.541 30.6583C48.0369 33.0556 47.5155 34.3786 45.4847 35.8787C43.6944 37.2012 42.8796 38.4419 42.0998 41.0329C41.4682 43.1313 40.4176 44.0104 38.0535 44.4174C35.7697 44.8102 34.457 45.5027 32.8477 47.1623C31.0636 49.0024 29.7847 49.3058 27.2905 48.4814C25.2505 47.8069 23.6798 47.8039 21.6479 48.471C20.2246 48.9381 19.466 49.0195 18.5534 48.8033Z" fill="white"/>
<path d="M33.2266 22.3837C33.0726 22.0693 33.2046 21.6921 33.5189 21.5381C33.8332 21.3841 34.2104 21.5161 34.3645 21.8304C34.5185 22.1448 34.3865 22.522 34.0721 22.676C33.7578 22.83 33.3806 22.698 33.2266 22.3837ZM36.285 28.6702C36.131 28.3559 36.263 27.9787 36.5774 27.8247C36.8917 27.6707 37.2689 27.8027 37.4229 28.117C37.5769 28.4313 37.4449 28.8085 37.1306 28.9625C36.8163 29.1166 36.439 28.9845 36.285 28.6702ZM36.5522 20.5134C34.5405 19.0769 31.9158 18.706 29.4861 19.6459L36.1278 33.3034C38.3659 31.9738 39.6925 29.6761 39.8056 27.2086L42.3264 27.3878C42.4709 27.3972 42.5969 27.2903 42.6061 27.1426C42.6157 26.998 42.5089 26.8722 42.3611 26.8629L39.8085 26.6805C39.7835 25.6055 39.5259 24.5085 39.0134 23.4524C38.501 22.3994 37.797 21.5193 36.9671 20.834L38.4005 18.7123C38.4822 18.5929 38.4507 18.4294 38.3313 18.3477C38.2119 18.2659 38.0484 18.2974 37.9667 18.4168L36.5522 20.5103" fill="#3DDC84"/>
<path d="M30.4292 25.6558C28.5558 26.5611 26.5409 27.02 24.4412 27.02C19.7106 27.02 15.4137 24.6185 12.9085 20.7963C12.7105 20.4945 12.3019 20.4222 12.0095 20.636L9.59862 22.4119C9.32516 22.6131 9.2623 22.9966 9.45402 23.2795C12.745 28.1925 18.3181 31.2697 24.4412 31.2697C27.1853 31.2697 29.8225 30.6693 32.2775 29.4843L30.4292 25.6558Z" fill="#4285F4"/>
<path d="M24.4192 10.546H25.7237V7.66359C25.7237 6.94378 25.1391 6.35913 24.4192 6.35913C23.6994 6.35913 23.1147 6.94378 23.1147 7.66359V10.546H24.4192Z" fill="#4285F4"/>
<path d="M21.0242 16.1726L12.0564 34.63C11.8616 35.0292 11.7579 35.4629 11.7484 35.9062L11.695 38.3234C11.6824 38.9489 12.4054 39.3009 12.8894 38.9049L14.7565 37.371C15.0991 37.0912 15.3758 36.7391 15.5707 36.34L24.4096 18.1434L21.0274 16.1757L21.0242 16.1726Z" fill="#4285F4"/>
<path d="M37.0928 35.903C37.0834 35.4598 36.9765 35.026 36.7848 34.6268L27.817 16.1694L24.4348 18.1434L33.2738 36.3337C33.4686 36.7328 33.7452 37.0818 34.0879 37.3647L35.955 38.8986C36.439 39.2946 37.1651 38.9426 37.1494 38.3171L37.096 35.8999L37.0928 35.903Z" fill="#4285F4"/>
<path d="M24.419 10.3167C22.2596 10.3167 20.5056 12.0738 20.5056 14.2301C20.5056 16.3864 22.2627 18.1435 24.419 18.1435C26.5753 18.1435 28.3324 16.3864 28.3324 14.2301C28.3324 12.0738 26.5753 10.3167 24.419 10.3167ZM24.419 16.3832C23.234 16.3832 22.2659 15.4182 22.2659 14.2301C22.2659 13.0419 23.2308 12.0769 24.419 12.0769C25.6071 12.0769 26.5722 13.0419 26.5722 14.2301C26.5722 15.4182 25.6071 16.3832 24.419 16.3832Z" fill="#073042"/>
</svg>
