<svg width="34" height="38" viewBox="0 0 34 38" fill="none" xmlns="http://www.w3.org/2000/svg">
<path d="M33.2625 10.975C33.2622 10.3473 33.1278 9.79266 32.8559 9.31663C32.5888 8.84854 32.1889 8.4562 31.6524 8.146C27.224 5.59642 22.7914 3.05463 18.3644 0.502454C17.1709 -0.185527 16.0138 -0.160445 14.8291 0.537412C13.0665 1.57536 4.24161 6.62371 1.61192 8.14457C0.528933 8.77056 0.00195226 9.72859 0.00169196 10.9738C0 16.1012 0.00169196 21.2284 0 26.3559C0.000260302 26.9698 0.128979 27.5137 0.388891 27.9825C0.65609 28.4648 1.06164 28.8679 1.61049 29.1852C4.24031 30.706 13.0664 35.754 14.8286 36.7922C16.0138 37.4904 17.1709 37.5154 18.3648 36.8271C22.7919 34.2748 27.2248 31.7332 31.6538 29.1836C32.2027 28.8665 32.6082 28.4631 32.8754 27.9812C33.135 27.5124 33.2639 26.9685 33.2642 26.3545C33.2642 26.3545 33.2642 16.1025 33.2625 10.975Z" fill="#5C8DBC"/>
<path d="M16.683 18.615L0.388916 27.9826C0.656116 28.4649 1.06167 28.868 1.61051 29.1852C4.24034 30.7061 13.0664 35.7541 14.8286 36.7923C16.0138 37.4905 17.1709 37.5155 18.3648 36.8272C22.7919 34.2749 27.2248 31.7333 31.6539 29.1837C32.2027 28.8666 32.6083 28.4632 32.8755 27.9813L16.683 18.615Z" fill="#1A4674"/>
<path d="M11.8567 21.3898C12.8048 23.0425 14.5873 24.1573 16.6319 24.1573C18.6892 24.1573 20.4818 23.0284 21.4251 21.3579L16.6828 18.615L11.8567 21.3898Z" fill="#1A4674"/>
<path d="M33.2624 10.975C33.2621 10.3473 33.1277 9.79267 32.8558 9.31665L16.6829 18.6149L32.8753 27.9813C33.1348 27.5124 33.2638 26.9685 33.2641 26.3545C33.2641 26.3545 33.2641 16.1025 33.2624 10.975Z" fill="#1B598E"/>
<path d="M32.3722 19.2844H31.1068V20.5481H29.8413V19.2844H28.5761V18.0211H29.8413V16.7577H31.1068V18.0211H32.3722V19.2844ZM27.7551 19.2844H26.4899V20.5481H25.2246V19.2844H23.9592V18.0211H25.2246V16.7577H26.4899V18.0211H27.7551V19.2844Z" fill="white"/>
<path d="M21.4252 21.3578C20.4819 23.0283 18.6893 24.1572 16.632 24.1572C14.5873 24.1572 12.8049 23.0424 11.8568 21.3897C11.3805 20.5604 11.1303 19.6208 11.1313 18.6648C11.1313 15.6315 13.5941 13.1725 16.632 13.1725C18.6635 13.1725 20.4366 14.2734 21.3894 15.9092L26.1973 13.1448C24.2863 9.851 20.7185 7.63501 16.632 7.63501C10.531 7.63501 5.58545 12.5733 5.58545 18.6648C5.58545 20.6632 6.1179 22.5373 7.04847 24.1538C8.95466 27.4651 12.5326 29.6947 16.632 29.6947C20.7389 29.6947 24.3225 27.4561 26.2259 24.1351L21.4252 21.3578Z" fill="white"/>
</svg>
