<svg width="36" height="40" viewBox="0 0 36 40" fill="none" xmlns="http://www.w3.org/2000/svg">
<path d="M3.20857 36.0014L0 0H35.2686L32.0557 35.9957L17.6129 40L3.20857 36.0014Z" fill="#1572B6"/>
<path d="M17.6343 36.94L29.3057 33.7043L32.0514 2.94427H17.6343V36.94Z" fill="#33A9DC"/>
<path d="M17.6343 15.9871H23.4771L23.88 11.4657H17.6343V7.04999H17.65H28.7057L28.6 8.23427L27.5157 20.4028H17.6343V15.9871Z" fill="white"/>
<path d="M17.6616 27.4543L17.6416 27.46L12.7244 26.1314L12.4102 22.61H10.0202H7.97729L8.59587 29.5428L17.6402 32.0543L17.6616 32.0486V27.4543Z" fill="#EBEBEB"/>
<path d="M23.1015 20.2157L22.57 26.1286L17.6458 27.4571V32.0514L26.6972 29.5428L26.7643 28.7971L27.5315 20.2157H23.1015Z" fill="white"/>
<path d="M17.6501 7.04999V9.79284V11.4543V11.4657H6.99862H6.98434L6.89577 10.4728L6.69434 8.23427L6.58862 7.04999H17.6501Z" fill="#EBEBEB"/>
<path d="M17.6343 15.9871V18.73V20.3914V20.4028H12.7928H12.7786L12.69 19.41L12.49 17.1714L12.3843 15.9871H17.6343Z" fill="#EBEBEB"/>
</svg>
