<svg width="40" height="51" viewBox="0 0 40 51" fill="none" xmlns="http://www.w3.org/2000/svg">
<path d="M18.1475 0H26.5731V38.6091C22.9765 39.3472 19.3158 39.728 15.6442 39.746C5.355 39.7353 0 35.139 0 26.3117C0 17.8117 5.68012 12.2867 14.484 12.2867C15.7187 12.2627 16.9511 12.4056 18.1475 12.7117V0ZM18.1475 19.4267C17.2315 19.1246 16.2707 18.9808 15.3064 19.0017C11.0564 19.0017 8.58499 21.6006 8.58499 26.1545C8.58499 30.5893 10.9374 33.0373 15.2532 33.0373C16.2219 33.0371 17.1892 32.9661 18.1475 32.8248V19.4374V19.4267Z" fill="#44B78B"/>
<path d="M39.9606 12.8754V32.2129C39.9606 38.8705 39.4612 42.0707 37.9992 44.8311C36.5071 47.6378 34.0673 49.8238 31.1142 51L23.2985 47.3173C26.1379 46.345 28.516 44.3546 29.9731 41.7307C31.1758 39.3486 31.5562 36.5882 31.5562 29.3271V12.8754H39.9606Z" fill="#44B78B"/>
</svg>
