<svg width="31" height="45" viewBox="0 0 31 45" fill="none" xmlns="http://www.w3.org/2000/svg">
<path d="M7.54611 44.9115C11.7116 44.9115 15.0922 41.5581 15.0922 37.4263V29.941H7.54611C3.38066 29.941 0 33.2944 0 37.4263C0 41.5581 3.38066 44.9115 7.54611 44.9115Z" fill="#0ACF83"/>
<path d="M0 22.4558C0 18.324 3.38066 14.9706 7.54611 14.9706H15.0922V29.9411H7.54611C3.38066 29.9411 0 26.5877 0 22.4558Z" fill="#A259FF"/>
<path d="M0 7.48524C0 3.35339 3.38066 0 7.54611 0H15.0922V14.9705H7.54611C3.38066 14.9705 0 11.6171 0 7.48524Z" fill="#F24E1E"/>
<path d="M15.0922 0H22.6383C26.8037 0 30.1844 3.35339 30.1844 7.48524C30.1844 11.6171 26.8037 14.9705 22.6383 14.9705H15.0922V0Z" fill="#FF7262"/>
<path d="M30.1844 22.4558C30.1844 26.5877 26.8037 29.9411 22.6383 29.9411C18.4728 29.9411 15.0922 26.5877 15.0922 22.4558C15.0922 18.324 18.4728 14.9706 22.6383 14.9706C26.8037 14.9706 30.1844 18.324 30.1844 22.4558Z" fill="#1ABCFE"/>
</svg>
