<svg width="89" height="83" viewBox="0 0 89 83" fill="none" xmlns="http://www.w3.org/2000/svg">
<path d="M41.5298 69.4693H40.3253V69.4301C40.7234 69.4562 41.1251 69.4693 41.5298 69.4693Z" fill="#231F20"/>
<path d="M68.8456 33.0991L68.7899 33.1282H40.3253V33.0991H68.8456Z" fill="#252627"/>
<path d="M41.5298 69.4693H40.3253V69.4301C40.7234 69.4562 41.1251 69.4693 41.5298 69.4693Z" fill="#252627"/>
<path d="M68.8456 33.0991L68.7899 33.1282H41.5298C41.1251 33.1282 40.7234 33.1412 40.3253 33.1674V33.0991H68.8456Z" fill="#252627"/>
<path d="M16.3938 29.0882H35.0482C33.0279 29.7771 31.1482 30.8682 29.4732 32.2851C29.1546 32.5544 28.8431 32.8357 28.5405 33.1282H16.3944V29.0882H16.3938Z" fill="#252627"/>
<path d="M44.4579 32.2898V33.1282H39.3873C40.7519 32.6962 42.186 32.4215 43.6687 32.3242C43.9304 32.307 44.1933 32.2957 44.4579 32.2898Z" fill="#252627"/>
<path d="M52.7752 57.4886H56.8152L56.8152 6.25966H52.7752L52.7752 57.4886Z" fill="#252627"/>
<path d="M16.3944 57.4886H20.4344L20.4344 6.25966H16.3944L16.3944 57.4886Z" fill="#252627"/>
<path d="M76.6124 73.5087H45.6161C40.8611 73.5087 36.455 72.0147 32.8422 69.4693C27.1343 65.4506 23.4058 58.81 23.4058 51.2984C23.4058 43.7868 27.1337 37.1474 32.841 33.1282C36.4544 30.5828 40.8605 29.0882 45.6161 29.0882H76.4913L68.8456 33.0991H58.3496C58.3632 33.1086 58.3775 33.1181 58.3911 33.1282H45.6161C45.2114 33.1282 44.8097 33.1413 44.4116 33.1674C34.9378 33.7874 27.4458 41.668 27.4458 51.2984C27.4458 60.9288 34.9378 68.8101 44.4116 69.4301V69.4693H68.9121L76.6124 73.5087Z" fill="#252627"/>
<path d="M40.6439 47.0466L34.1511 53.1134L40.6439 51.5167V47.0466Z" fill="#252627"/>
<path d="M41.2112 47.0466L47.704 53.1134L41.2112 51.5167V47.0466Z" fill="#252627"/>
</svg>
