<svg width="32" height="36" viewBox="0 0 32 36" fill="none" xmlns="http://www.w3.org/2000/svg">
<path d="M31.743 0L28.8512 32.3963L15.8521 36L2.88886 32.4013L0 0H31.743Z" fill="#E44D26"/>
<path d="M15.8715 33.2454L26.3754 30.3334L28.8465 2.64923H15.8715V33.2454Z" fill="#F16529"/>
<path d="M10.2498 10.5971H15.8715V6.62323H5.90686L6.00192 7.68934L6.97869 18.6403H15.8715V14.6664H10.613L10.2498 10.5971ZM11.1454 20.6273H7.15625L7.71294 26.8669L15.8532 29.1266L15.8715 29.1216V24.9871L15.8541 24.9917L11.4284 23.7966L11.1454 20.6273Z" fill="#EBEBEB"/>
<path d="M15.8579 18.6403H20.7513L20.2899 23.7942L15.8578 24.9904V29.1247L24.0045 26.8669L24.0642 26.1955L24.9982 15.7335L25.0951 14.6664H15.8579V18.6403ZM15.8579 10.5874V10.5971H25.4567L25.5364 9.70396L25.7175 7.68934L25.8125 6.62323H15.8579V10.5874Z" fill="white"/>
</svg>
