<svg width="40" height="55" viewBox="0 0 40 55" fill="none" xmlns="http://www.w3.org/2000/svg">
<path d="M12.9308 41.938C12.9308 41.938 10.8456 43.206 14.3802 43.5688C18.6352 44.1113 20.9017 44.0214 25.611 43.1162C26.5575 43.6958 27.5585 44.1813 28.5997 44.5656C18.0045 49.0952 4.59706 44.2944 12.9308 41.938ZM11.5746 36.0505C11.5746 36.0505 9.30976 37.7712 12.8426 38.1356C17.4621 38.5883 21.0848 38.6781 27.3367 37.4118C27.9447 38.0284 28.6892 38.4936 29.51 38.7697C16.7382 42.5737 2.42718 39.1307 11.5746 36.0505ZM36.574 46.3744C36.574 46.3744 38.1132 47.6424 34.8533 48.6392C28.7844 50.4531 9.40131 50.9956 3.96644 48.6392C2.0644 47.8255 5.68708 46.6473 6.84831 46.466C8.02649 46.1947 8.66219 46.1947 8.66219 46.1947C6.57707 44.7453 -5.19622 49.1834 2.68485 50.4497C24.3328 53.9825 42.1767 48.9105 36.5604 46.3744H36.574ZM13.9106 29.8901C13.9106 29.8901 4.03764 32.2465 10.3778 33.0602C13.0952 33.4229 18.4385 33.3314 23.4208 32.9703C27.4961 32.6075 31.5748 31.8854 31.5748 31.8854C31.5748 31.8854 30.1254 32.5194 29.1286 33.1534C19.0759 35.781 -0.219059 34.6028 5.30735 31.8854C10.0167 29.6206 13.9123 29.8935 13.9123 29.8935L13.9106 29.8901ZM31.5748 39.7631C41.719 34.5079 37.0096 29.4392 33.748 30.0715C32.9343 30.2529 32.5699 30.4343 32.5699 30.4343C32.5699 30.4343 32.8411 29.8918 33.4751 29.7104C39.9068 27.4456 44.9789 36.5032 31.39 40.0343C31.39 40.0343 31.4798 39.9444 31.5714 39.7631H31.5748ZM14.9108 54.0741C24.6922 54.7081 39.6389 53.7113 40 49.0901C40 49.0901 39.2761 50.904 31.9392 52.2602C23.6055 53.7995 13.28 53.6164 7.21108 52.623C7.21108 52.623 8.47911 53.7096 14.9108 54.0741Z" fill="#4E7896"/>
<path d="M25.4313 0C25.4313 0 31.0475 5.7061 20.0879 14.311C11.3016 21.2852 18.096 25.2706 20.0879 29.8002C14.9243 25.1808 11.2118 21.1038 13.7478 17.3014C17.4603 11.6834 27.6961 8.98296 25.4313 0ZM22.5494 25.9962C25.177 28.9848 21.8255 31.7023 21.8255 31.7023C21.8255 31.7023 28.5284 28.261 25.4482 24.0026C22.6409 19.9273 20.4643 17.9337 32.2409 11.141C32.2409 11.141 13.6732 15.7604 22.5494 25.9962Z" fill="#F58219"/>
</svg>
