<svg width="32" height="37" viewBox="0 0 32 37" fill="none" xmlns="http://www.w3.org/2000/svg">
<path d="M0.107422 0L0.112452 0.402389C0.115223 0.623703 0.756404 7.95125 1.53732 16.6858L2.95715 32.5668L9.33863 34.3535C12.8484 35.3362 15.7925 36.1451 15.8811 36.1513C15.9696 36.1575 18.9526 35.3567 22.5099 34.3717C28.2134 32.7925 28.9834 32.5546 29.0242 32.3591C29.0811 32.0868 31.8742 0.578542 31.8713 0.241433L31.8693 0H15.9883H0.107422Z" fill="white"/>
<path d="M9.38907 34.4603L2.95085 32.6607L2.86672 32.1845C2.79193 31.7612 0 0.578124 0 0.166108C0 0.0169904 1.63013 6.10352e-05 15.9882 6.10352e-05C31.1441 6.10352e-05 31.9764 0.00983653 31.9753 0.187842C31.9702 0.956674 29.0803 32.5527 29.0093 32.6156C28.9196 32.695 16.4583 36.1667 16.0419 36.2282C15.9239 36.2457 12.9301 35.4501 9.38907 34.4603ZM20.0479 28.1015C22.2119 27.5047 24.0136 26.9856 24.0518 26.948C24.0899 26.9104 24.3431 24.3446 24.6145 21.2462C24.8858 18.1478 25.1352 15.4075 25.1687 15.1567L25.2295 14.7007H20.5552H15.8809V16.6858V18.6709H18.4046H20.9283L20.8781 18.9123C20.8505 19.0451 20.7432 20.1862 20.6396 21.4482C20.5299 22.7853 20.3997 23.7941 20.3278 23.8661C20.2598 23.934 19.2315 24.2489 18.0426 24.5658L15.8809 25.142V27.1643C15.8809 28.5446 15.9178 29.1867 15.9972 29.1867C16.0611 29.1867 17.8839 28.6983 20.0479 28.1015ZM25.168 12.2059C25.0971 11.6801 24.4652 4.62784 24.4652 4.36193C24.4652 4.20042 24.0938 4.1849 20.2267 4.1849H15.9882V6.26072V8.33655L17.8929 8.40996C18.9404 8.45033 20.0429 8.51178 20.3428 8.54651L20.888 8.60965L21.0204 10.2334C21.0932 11.1264 21.1799 12.0382 21.2132 12.2595L21.2736 12.6619H23.2515H25.2295L25.168 12.2059Z" fill="#EAEBEC"/>
<path d="M9.3384 34.3534L2.95694 32.5667L1.5371 16.6858C0.756183 7.95126 0.114987 0.623764 0.112216 0.40245L0.107178 6.10352e-05H15.9881H31.8691L31.8711 0.241494C31.874 0.578603 29.0809 32.0868 29.024 32.3592C28.9832 32.5547 28.2132 32.7926 22.5097 34.3718C18.9524 35.3568 15.9693 36.1576 15.8808 36.1514C15.7923 36.1452 12.8482 35.3361 9.3384 34.3534ZM20.0526 28.1774C22.2586 27.5641 24.0948 27.0117 24.133 26.9497C24.1713 26.8878 24.4348 24.191 24.7186 20.9567C25.0025 17.7224 25.2579 14.9917 25.2864 14.8884C25.3351 14.711 24.9598 14.7007 18.4849 14.7007H11.6317L11.9235 11.6157C12.084 9.91894 12.2192 8.52631 12.2239 8.52094C12.2286 8.51557 13.2344 8.48349 14.459 8.44965C16.467 8.39415 20.6079 8.55434 20.7465 8.69287C20.7982 8.74462 21.1387 12.085 21.1387 12.541C21.1387 12.7659 21.169 12.7692 23.2179 12.7692H25.2972L25.2482 12.3132C25.2212 12.0623 25.0451 10.1188 24.8568 7.99418L24.5144 4.13125L16.4956 4.10374C10.1163 4.08186 8.47668 4.1038 8.47598 4.21105C8.47542 4.28519 8.42874 4.7563 8.37208 5.25794C8.23496 6.47183 7.18922 18.2006 7.18922 18.5245V18.7782H14.0124H20.8356L20.7748 19.1806C20.7414 19.4019 20.6353 20.5246 20.5391 21.6754C20.4429 22.8262 20.3333 23.7976 20.2954 23.8339C20.1955 23.9299 16.1815 25.0022 15.9312 24.9998C15.8149 24.9987 14.7783 24.74 13.6274 24.425L11.535 23.8522L11.4583 22.9516C11.4161 22.4563 11.3519 21.7492 11.3156 21.3803L11.2497 20.7097H9.21945H7.18922L7.19372 21.1121C7.20212 21.8646 7.69009 26.9334 7.76095 27.0043C7.84291 27.0862 15.6407 29.2782 15.8808 29.2867C15.9693 29.2899 17.8467 28.7907 20.0526 28.1774Z" fill="#F0BE25"/>
<path d="M9.3384 34.3534L2.95694 32.5667L1.5371 16.6858C0.756183 7.95126 0.114987 0.623764 0.112216 0.40245L0.107178 6.10352e-05H15.9881H31.8691L31.8711 0.241494C31.874 0.578603 29.0809 32.0868 29.024 32.3592C28.9832 32.5547 28.2132 32.7926 22.5097 34.3718C18.9524 35.3568 15.9693 36.1576 15.8808 36.1514C15.7923 36.1452 12.8482 35.3361 9.3384 34.3534ZM21.239 31.9632C24.0462 31.1886 26.3957 30.5005 26.4601 30.4341C26.5604 30.3307 28.9849 3.7594 28.9751 2.87043L28.9719 2.57535H22.48H15.9881V3.32647V4.0776H12.2325C9.29999 4.0776 8.47667 4.107 8.47598 4.21173C8.47542 4.2855 8.42874 4.7563 8.37208 5.25794C8.23496 6.47183 7.18922 18.2006 7.18922 18.5245V18.7782H11.5887H15.9881V21.89C15.9881 24.309 15.9583 25.0014 15.854 24.9998C15.7802 24.9987 14.7783 24.74 13.6274 24.425L11.535 23.8522L11.4583 22.9516C11.4161 22.4563 11.3519 21.7492 11.3156 21.3803L11.2497 20.7097H9.21945H7.18922L7.19372 21.1121C7.20657 22.263 7.70447 26.9611 7.82124 27.0333C7.89221 27.0772 9.7588 27.6135 11.9692 28.2252L15.9881 29.3373V31.3544C15.9881 32.4638 16.0212 33.3715 16.0616 33.3715C16.102 33.3715 18.4318 32.7378 21.239 31.9632ZM11.9122 11.6445C12.0665 9.96364 12.2137 8.56935 12.2394 8.5461C12.2651 8.52285 13.1191 8.48078 14.1371 8.45262L15.9881 8.4014V11.551V14.7007H13.8099H11.6317L11.9122 11.6445Z" fill="#E4A126"/>
</svg>
