<svg width="38" height="47" viewBox="0 0 38 47" fill="none" xmlns="http://www.w3.org/2000/svg">
<path d="M9.23458 36.4747C7.92053 36.4747 6.84912 37.4986 6.84912 38.7692C6.84912 39.6328 7.34647 40.3728 8.08647 40.7677L17.309 45.7138C18.0405 46.1265 18.8662 46.3432 19.706 46.3428C20.2675 46.3428 20.8035 46.2443 21.3008 46.0715L24.4514 45.1958V36.4626C24.4644 36.4747 9.24712 36.4747 9.23458 36.4747Z" fill="url(#paint0_linear_35_411)"/>
<path d="M9.23458 36.4747C7.92053 36.4747 6.84912 37.4986 6.84912 38.7692C6.84912 39.6328 7.34647 40.3728 8.08647 40.7677L17.309 45.7138C18.0405 46.1265 18.8662 46.3432 19.706 46.3428C20.2675 46.3428 20.8035 46.2443 21.3008 46.0715L24.4514 45.1958V36.4626C24.4644 36.4747 9.24712 36.4747 9.23458 36.4747Z" fill="url(#paint1_linear_35_411)"/>
<path d="M21.0982 0.184927C20.6626 0.0604578 20.2116 -0.00178694 19.7586 3.90347e-05C19.006 3.90347e-05 18.2535 0.148239 17.5772 0.493396C17.4373 0.555186 2.57651 8.63427 2.57651 8.63427C2.37245 8.73323 2.18094 8.85633 2.00245 8.97991C1.97737 8.99198 1.96435 9.00453 1.93878 9.01708C1.82397 9.10301 1.7217 9.18942 1.60737 9.27583C1.55624 9.313 1.5051 9.36272 1.46699 9.39941C1.40332 9.46072 1.33916 9.52251 1.28851 9.5843C1.11002 9.76919 0.803695 10.1636 0.803695 10.1636C0.278152 10.9112 -0.00264695 11.8036 1.8806e-05 12.7177V34.1802C1.8806e-05 35.4513 1.07143 36.4752 2.38548 36.4752C2.71689 36.4752 3.02321 36.4134 3.30397 36.2898L7.55148 33.9833C8.31657 33.6135 8.92921 32.984 9.24808 32.2068C9.3243 32.0465 9.38798 31.8496 9.42657 31.6517C9.43911 31.6024 9.45213 31.5406 9.45213 31.4914C9.45213 31.4672 9.46468 31.4301 9.46468 31.4055C9.4777 31.3186 9.49024 31.2201 9.49024 31.1342C9.49024 31.0598 9.50327 30.998 9.50327 30.9242V19.5016V15.9366C9.50327 14.9374 9.94949 14.0371 10.6514 13.4081C10.9828 13.1121 11.4165 12.8529 11.9268 12.6806C12.4367 12.4952 24.5039 8.27705 24.5039 8.27705V1.15957L21.0982 0.184927Z" fill="url(#paint2_linear_35_411)"/>
<path d="M21.0982 0.184927C20.6626 0.0604578 20.2116 -0.00178694 19.7586 3.90347e-05C19.006 3.90347e-05 18.2535 0.148239 17.5772 0.493396C17.4373 0.555186 2.57651 8.63427 2.57651 8.63427C2.37245 8.73323 2.18094 8.85633 2.00245 8.97991C1.97737 8.99198 1.96435 9.00453 1.93878 9.01708C1.82397 9.10301 1.7217 9.18942 1.60737 9.27583C1.55624 9.313 1.5051 9.36272 1.46699 9.39941C1.40332 9.46072 1.33916 9.52251 1.28851 9.5843C1.11002 9.76919 0.803695 10.1636 0.803695 10.1636C0.278152 10.9112 -0.00264695 11.8036 1.8806e-05 12.7177V34.1802C1.8806e-05 35.4513 1.07143 36.4752 2.38548 36.4752C2.71689 36.4752 3.02321 36.4134 3.30397 36.2898L7.55148 33.9833C8.31657 33.6135 8.92921 32.984 9.24808 32.2068C9.3243 32.0465 9.38798 31.8496 9.42657 31.6517C9.43911 31.6024 9.45213 31.5406 9.45213 31.4914C9.45213 31.4672 9.46468 31.4301 9.46468 31.4055C9.4777 31.3186 9.49024 31.2201 9.49024 31.1342C9.49024 31.0598 9.50327 30.998 9.50327 30.9242V19.5016V15.9366C9.50327 14.9374 9.94949 14.0371 10.6514 13.4081C10.9828 13.1121 11.4165 12.8529 11.9268 12.6806C12.4367 12.4952 24.5039 8.27705 24.5039 8.27705V1.15957L21.0982 0.184927Z" fill="url(#paint3_linear_35_411)"/>
<path d="M34.6835 4.03098L21.3027 0.244873C23.2415 0.97284 24.4528 2.61318 24.4528 4.61171C24.4528 4.61171 24.4407 40.9135 24.4528 41.7892C24.4658 43.7626 23.1648 45.4527 21.3027 46.0817C21.7108 45.9707 34.6835 42.3564 34.6835 42.3564C36.6092 41.7646 38 40.0374 38 37.978V8.4094C38.0125 6.3626 36.6092 4.62281 34.6835 4.03098Z" fill="url(#paint4_linear_35_411)"/>
<defs>
<linearGradient id="paint0_linear_35_411" x1="8.17282" y1="40.241" x2="41.328" y2="43.2409" gradientUnits="userSpaceOnUse">
<stop stop-color="#F32B44"/>
<stop offset="0.6" stop-color="#A4070A"/>
</linearGradient>
<linearGradient id="paint1_linear_35_411" x1="30.6396" y1="42.142" x2="15.9205" y2="40.8101" gradientUnits="userSpaceOnUse">
<stop stop-opacity="0.4"/>
<stop offset="1" stop-opacity="0"/>
</linearGradient>
<linearGradient id="paint2_linear_35_411" x1="21.5816" y1="-1.59879" x2="-2.87012" y2="34.5128" gradientUnits="userSpaceOnUse">
<stop stop-color="#800600"/>
<stop offset="0.6" stop-color="#C72127"/>
<stop offset="0.728" stop-color="#C13959"/>
<stop offset="0.847" stop-color="#BC4B81"/>
<stop offset="0.942" stop-color="#B95799"/>
<stop offset="1" stop-color="#B85BA2"/>
</linearGradient>
<linearGradient id="paint3_linear_35_411" x1="22.105" y1="-2.32193" x2="16.9267" y2="5.3256" gradientUnits="userSpaceOnUse">
<stop stop-opacity="0.4"/>
<stop offset="1" stop-opacity="0"/>
</linearGradient>
<linearGradient id="paint4_linear_35_411" x1="29.6608" y1="-2.35901" x2="29.6608" y2="42.858" gradientUnits="userSpaceOnUse">
<stop stop-color="#FFB900"/>
<stop offset="0.166" stop-color="#EF8400"/>
<stop offset="0.313" stop-color="#E25C01"/>
<stop offset="0.429" stop-color="#DB4401"/>
<stop offset="0.5" stop-color="#D83B01"/>
</linearGradient>
</defs>
</svg>
