<svg width="44" height="43" viewBox="0 0 44 43" fill="none" xmlns="http://www.w3.org/2000/svg">
<path fill-rule="evenodd" clip-rule="evenodd" d="M40.5218 33.2057C38.1287 33.139 36.2722 33.3843 34.7161 34.0389C34.2681 34.2188 33.5491 34.2188 33.4901 34.7827C33.7295 35.0193 33.7584 35.4066 33.9683 35.7346C34.3271 36.3298 34.9563 37.1316 35.5243 37.5476L37.4392 38.916C38.6062 39.6292 39.9228 40.0458 41.0597 40.7597C41.7183 41.1763 42.3763 41.7115 43.0349 42.1581C43.3703 42.396 43.5735 42.7833 43.9927 42.9313V42.8413C43.7834 42.5747 43.7231 42.1881 43.5145 41.8895L42.6157 41.0276C41.7485 39.8678 40.6707 38.856 39.5036 38.0241C38.5459 37.3696 36.4519 36.4777 36.0629 35.3779L36.0039 35.3113C36.6612 35.2446 37.4392 35.0133 38.0683 34.8347C39.0865 34.5681 40.0134 34.6267 41.0597 34.3595L42.497 33.9429V33.6763C41.9584 33.141 41.5694 32.4271 41.0013 31.9219C39.4755 30.6135 37.7987 29.3344 36.0629 28.2639C35.1353 27.6693 33.9381 27.282 32.9508 26.7775C32.5907 26.5988 31.9931 26.5095 31.7838 26.2122C31.2439 25.559 30.9454 24.6958 30.5564 23.922L28.103 18.7476C27.5644 17.5878 27.2344 16.428 26.5771 15.3575C23.4946 10.3017 20.1424 7.23894 14.9954 4.2348C13.8887 3.61025 12.5721 3.34163 11.1723 3.01502L8.92816 2.89504C8.44861 2.68708 7.9704 2.12184 7.55121 1.85389C5.8456 0.783413 1.44644 -1.53618 0.188868 1.52062C-0.619333 3.45361 1.38608 5.3566 2.06684 6.33843C2.57658 7.02231 3.23387 7.7955 3.59404 8.5687C3.79525 9.07394 3.86233 9.60985 4.07226 10.1451C4.55047 11.4535 4.99984 12.9113 5.62829 14.131C5.96365 14.7556 6.31577 15.4108 6.73496 15.9754C6.9744 16.3087 7.39359 16.4513 7.48279 16.9865C7.0636 17.5818 7.03476 18.4729 6.79532 19.2175C5.7175 22.5782 6.13669 26.7415 7.66254 29.2157C8.1421 29.9589 9.27224 31.5953 10.8055 30.9701C12.1523 30.4348 11.8518 28.7398 12.2408 27.2527C12.3313 26.8961 12.271 26.6582 12.45 26.4195V26.4862L13.6774 28.9544C14.605 30.4115 16.2214 31.9286 17.5675 32.9404C18.2852 33.4756 18.8539 34.3981 19.7514 34.7247V34.6347H19.6923C19.5126 34.3681 19.243 34.2481 19.0035 34.0402C18.4649 33.5049 17.8667 32.8504 17.4475 32.2558C16.1912 30.5908 15.0846 28.7465 14.0966 26.8435C13.6171 25.9216 13.1979 24.9105 12.8102 23.9886C12.6291 23.6314 12.6291 23.0955 12.3307 22.9182C11.8813 23.5714 11.224 24.1379 10.8933 24.9405C10.3246 26.2189 10.2656 27.7953 10.0563 29.431C9.93557 29.461 9.98923 29.431 9.93557 29.4977C8.97915 29.2604 8.64916 28.2779 8.29033 27.446C7.39292 25.3344 7.24268 21.9443 8.0207 19.5054C8.22996 18.8809 9.12871 16.9179 8.76988 16.3233C8.58879 15.7581 7.99186 15.4315 7.66187 14.9849C7.27286 14.4197 6.85501 13.7065 6.58539 13.0819C5.86773 11.4155 5.50891 9.57252 4.73022 7.90682C4.37005 7.13362 3.74227 6.33043 3.2332 5.61722C2.66445 4.81403 2.03733 4.2488 1.58796 3.29763C1.43839 2.96436 1.22913 2.43512 1.46857 2.07785C1.5276 1.83989 1.64832 1.74458 1.88642 1.69125C2.27543 1.35798 3.38344 1.78057 3.77245 1.95787C4.87911 2.40446 5.8067 2.82039 6.73428 3.44428C7.15348 3.74156 7.60285 4.30679 8.14143 4.4561H8.77055C9.72831 4.66406 10.8048 4.52275 11.7015 4.78937C13.2878 5.29595 14.7237 6.03848 16.0115 6.84234C19.9311 9.31057 23.1639 12.8199 25.3477 17.0139C25.7065 17.6978 25.8561 18.3223 26.1861 19.0362C26.8152 20.4939 27.5932 21.9803 28.2204 23.4087C28.8495 24.8065 29.4478 26.2349 30.3452 27.3947C30.7945 28.0193 32.5893 28.3459 33.3969 28.6731C33.9958 28.9398 34.9227 29.1797 35.4626 29.5063C36.4794 30.1309 37.4969 30.8448 38.454 31.5286C38.9322 31.8846 40.4292 32.6284 40.5184 33.2217L40.5218 33.2057ZM10.0047 7.36225C9.5912 7.35861 9.17904 7.40858 8.7786 7.51089V7.57754H8.83762C9.07706 8.05346 9.49626 8.38073 9.79539 8.79733L10.4842 10.2251L10.5432 10.1584C10.9624 9.86114 11.1723 9.38522 11.1723 8.67201C10.9926 8.46405 10.9631 8.25542 10.8135 8.04746C10.6338 7.75018 10.2448 7.60087 10.0047 7.36358V7.36225Z" fill="#00678C"/>
</svg>
