<svg width="40" height="41" viewBox="0 0 40 41" fill="none" xmlns="http://www.w3.org/2000/svg">
<path d="M37.4625 24.9284C32.6283 25.9249 32.2951 24.2882 32.2951 24.2882C37.3998 16.7152 39.5315 7.09956 37.6902 4.7468C32.6679 -1.67131 23.973 1.3645 23.8278 1.4437L23.7783 1.4503C22.8246 1.25231 21.7555 1.13352 20.5544 1.11372C18.3666 1.07742 16.7068 1.68788 15.4496 2.64153C15.4496 2.64153 -0.0627933 -3.75019 0.659863 10.6798C0.814954 13.7487 5.0585 33.9038 10.1237 27.8157C11.9749 25.5883 13.7634 23.7075 13.7634 23.7075C14.651 24.2981 15.7169 24.5984 16.8289 24.4895L16.9147 24.4169C16.8883 24.6941 16.9015 24.9647 16.9477 25.2848C15.6443 26.7433 16.027 26.9974 13.4169 27.5352C10.7771 28.0797 12.328 29.0465 13.341 29.3006C14.5685 29.6075 17.4064 30.0431 19.3268 27.357L19.2509 27.6639C19.7624 28.0731 20.1221 30.3269 20.0627 32.3694C20.0033 34.412 19.9637 35.8144 20.3663 36.91C20.7689 38.0055 21.1714 40.4704 24.5999 39.7346C27.4641 39.1208 28.9491 37.5303 29.1569 34.8773C29.3021 32.9898 29.6354 33.2703 29.6552 31.5841L29.9225 30.7855C30.2294 28.2282 29.972 27.4032 31.7374 27.786L32.1664 27.8223C33.4665 27.8817 35.1659 27.6144 36.1624 27.1491C38.304 26.1559 39.581 24.4895 37.4625 24.9284Z" fill="#336791"/>
<path d="M18.9375 26.3771C18.9474 26.0471 19.2213 25.7864 19.5512 25.7963C19.8812 25.8062 20.1419 26.0801 20.132 26.4101C20.0627 28.8618 20.0759 31.3202 20.165 33.2868C20.2475 35.0588 20.3894 36.392 20.5874 36.8869C20.7986 37.4116 21.1252 38.187 21.7522 38.7117C22.3627 39.2265 23.3031 39.54 24.8012 39.2199C26.1112 38.9394 26.9923 38.5401 27.5797 37.9297C28.1604 37.3258 28.4904 36.4712 28.695 35.2766C28.8468 34.4055 29.0547 32.8843 29.2428 31.3697C29.4803 29.4756 29.6981 27.5617 29.7443 26.9446C29.7674 26.6146 30.0545 26.3672 30.3845 26.3936C30.7145 26.4167 30.962 26.7037 30.9356 27.0337C30.8894 27.6343 30.6716 29.5713 30.4241 31.5214C30.2261 33.0856 30.0149 34.6365 29.8697 35.4779C29.6222 36.9067 29.2032 37.9594 28.4343 38.7579C27.6688 39.5532 26.5963 40.0547 25.0421 40.388C23.1117 40.8005 21.838 40.3484 20.9768 39.6225C20.1287 38.9097 19.7261 37.966 19.472 37.3291C19.2213 36.7054 19.053 35.2337 18.9639 33.3363C18.8781 31.3532 18.8682 28.8618 18.9375 26.3771Z" fill="white"/>
<path d="M15.6443 1.98162C15.9511 2.10371 16.0996 2.45019 15.9775 2.75707C15.8554 3.06395 15.509 3.21244 15.2021 3.09035C15.1625 3.07385 0.544373 -2.89879 1.22083 10.5908C1.30333 12.2572 2.62325 19.0746 4.62953 23.8296C5.26309 25.3277 5.95935 26.608 6.6985 27.4264C7.31557 28.1127 7.94583 28.4427 8.55299 28.2249C8.88957 28.1028 9.24925 27.829 9.62873 27.3736C11.4865 25.1396 13.176 23.3742 13.1826 23.3709C13.4103 23.1333 13.7865 23.1234 14.0241 23.3511C14.2616 23.5788 14.2715 23.955 14.0439 24.1926C14.0406 24.1959 12.3907 25.9151 10.5461 28.1358C10.0214 28.7694 9.48683 29.1621 8.94897 29.3535C7.80724 29.7593 6.7579 29.2842 5.80756 28.2282C4.97601 27.3076 4.21045 25.9118 3.53069 24.2916C1.46832 19.4112 0.112099 12.376 0.0263046 10.6469C-0.742549 -4.71698 15.5981 1.96182 15.6443 1.98162Z" fill="white"/>
<path d="M24.1214 1.88919L23.2338 0.919048C23.3064 0.89265 23.379 0.869551 23.4516 0.849752C23.6462 0.787056 23.8574 0.72436 24.0851 0.658364C24.4184 0.55937 24.9068 0.430678 25.504 0.315185C28.4837 -0.262281 34.298 -0.575762 38.1291 4.32114C39.2114 5.70376 39.1223 9.12565 38.0037 13.1778C37.0137 16.7647 35.2285 20.8993 32.7603 24.5621C32.5755 24.836 32.2026 24.9086 31.9287 24.7238C31.6549 24.539 31.5823 24.1662 31.767 23.8923C34.1627 20.3384 35.8918 16.3291 36.852 12.8577C37.875 9.15535 38.0367 6.13603 37.1886 5.0537C33.7502 0.661663 28.4474 0.958646 25.7251 1.48991C25.1674 1.59881 24.722 1.7143 24.4184 1.80339L24.1214 1.88919Z" fill="white"/>
<path d="M32.8295 24.0441C32.8361 24.0606 32.8394 24.0771 32.8427 24.0936C32.8427 24.0969 33.0473 25.1628 37.3074 24.285C37.9112 24.1596 38.3402 24.186 38.6174 24.3213C38.9771 24.4929 39.1322 24.78 39.1091 25.1496C39.0959 25.3739 38.9903 25.6148 38.8154 25.8557C38.4128 26.4068 37.4922 27.1195 36.3735 27.6376C35.5354 28.027 34.2583 28.2877 33.0869 28.3537C32.3973 28.3933 31.7373 28.3669 31.2126 28.2613C30.5527 28.1293 30.0511 27.8554 29.8432 27.4099C29.7871 27.2911 29.7541 27.1624 29.7475 27.0238C29.6155 24.7074 30.7441 24.3015 31.5327 24.0771C31.4502 23.9583 31.338 23.8164 31.2126 23.6613C30.8134 23.1631 30.3019 22.5229 29.896 21.5429C29.8333 21.3944 29.6518 21.0644 29.4076 20.6288C28.3748 18.7776 26.3421 15.1281 26.7414 12.6367C27.0252 10.8581 28.3814 9.67679 31.7703 10.0299L31.7373 9.93087C31.5756 9.4722 31.3182 8.87164 30.9453 8.19848C29.467 5.50584 26.2431 1.75067 20.518 1.65827C11.7834 1.51638 12.0705 12.5311 12.0705 12.5608C12.0771 12.8908 11.8131 13.1614 11.4831 13.168C11.1531 13.1746 10.8826 12.9106 10.876 12.5806C10.876 12.5443 10.5526 0.302056 20.5345 0.463746C26.8371 0.56604 30.3745 4.67759 31.9914 7.62101C32.394 8.35357 32.681 9.02013 32.8625 9.5382C33.0671 10.119 33.143 10.5743 33.11 10.7756C33.0638 11.0726 32.8988 11.2574 32.615 11.3135L32.4006 11.3168C29.2921 10.8185 28.1174 11.5808 27.9194 12.8215C27.5861 14.9103 29.4868 18.3157 30.4504 20.0481C30.7111 20.5166 30.909 20.873 30.9981 21.0908C31.3413 21.9191 31.7901 22.48 32.1399 22.9222C32.4666 23.3215 32.7239 23.6448 32.8295 24.0441ZM37.5482 25.4531C34.3903 26.1065 32.9186 25.628 32.2422 25.1133C32.1498 25.143 32.0508 25.1694 31.9452 25.1991C31.5228 25.3178 30.8661 25.5026 30.9354 26.9215C30.9849 26.9743 31.1697 27.0304 31.4403 27.0865C31.8726 27.1723 32.427 27.1921 33.0176 27.1591C34.0505 27.0997 35.1625 26.8787 35.8719 26.5487C36.6012 26.2088 37.2117 25.7996 37.5878 25.4432L37.5482 25.4531Z" fill="white"/>
<path d="M17.3568 25.6279C17.1126 25.9018 16.9114 26.1559 16.7398 26.3737C16.0072 27.3042 15.7795 27.5946 13.506 28.0632C13.0968 28.149 12.8196 28.2315 12.648 28.314C12.8592 28.4658 13.176 28.5912 13.4532 28.6605C14.0141 28.8023 14.9447 28.9706 15.9412 28.8023C16.9114 28.6374 17.9574 28.1391 18.8054 26.9512C18.8318 26.9116 18.8549 26.8687 18.8747 26.8258C18.9605 26.6179 18.9407 26.3572 18.8549 26.1097C18.7625 25.8457 18.5943 25.6147 18.3996 25.4728C18.3534 25.4398 18.3072 25.4134 18.2577 25.3936L18.228 25.3804C18.1059 25.331 17.9706 25.2782 17.8551 25.2881C17.7297 25.3013 17.5713 25.387 17.3568 25.6279ZM15.7993 25.6312C15.961 25.4266 16.1491 25.1891 16.4329 24.869C16.456 24.8393 16.4824 24.8096 16.5088 24.7832C16.9477 24.308 17.3667 24.1298 17.7528 24.0968C18.1356 24.0638 18.4326 24.1727 18.6834 24.2783C18.6933 24.2816 18.7032 24.2849 18.7163 24.2915C18.845 24.3443 18.9704 24.4169 19.0925 24.5027C19.4852 24.7832 19.8086 25.2287 19.9835 25.7137C20.1617 26.2186 20.1914 26.7829 19.9802 27.2844C19.9274 27.4098 19.8614 27.5286 19.7789 27.6441C18.7097 29.1422 17.3766 29.7692 16.1425 29.9804C14.9315 30.1883 13.8293 29.987 13.1628 29.822C12.6777 29.6999 12.0771 29.4293 11.7241 29.0993C11.5162 28.9046 11.3743 28.6737 11.3347 28.4163C11.2885 28.1094 11.3809 27.8124 11.6614 27.5484C11.932 27.2943 12.4335 27.0633 13.2618 26.8918C15.1064 26.5123 15.2714 26.3044 15.7993 25.6312Z" fill="white"/>
<path d="M17.4196 25.1098C17.4691 25.4365 17.2447 25.7434 16.918 25.7896C16.5913 25.8358 16.2844 25.6147 16.2383 25.288C16.2251 25.2088 16.2185 25.1296 16.2119 25.0471C16.0139 25.0405 15.8192 25.0273 15.6278 24.9976C14.3475 24.8194 13.1892 24.1727 12.3181 23.2157C11.4568 22.272 10.8761 21.0247 10.7408 19.6321C10.6913 19.1372 10.7012 18.6224 10.7738 18.1043C11.0675 16.0123 10.9553 14.1413 10.8992 13.1711C10.8827 12.9072 10.8728 12.7092 10.8728 12.5574C10.8761 12.1647 11.8627 11.3002 13.1628 10.7656C13.7502 10.5247 14.4069 10.3234 15.0569 10.2244C15.7433 10.1221 16.4362 10.132 17.0599 10.3267C18.0366 10.6336 18.8121 11.3562 19.1091 12.7389C20.1815 17.6919 19.2213 19.8202 18.4722 21.4866C18.3435 21.7737 18.2214 22.0443 18.129 22.2885C18.1257 22.305 18.1191 22.3182 18.1125 22.3347C17.7991 23.1794 18.2577 21.942 18.0201 22.5723C17.6473 23.5886 17.3206 24.4598 17.4196 25.1098ZM16.3405 23.8559C16.4692 23.3246 16.6804 22.7637 16.9048 22.1598C17.083 21.6846 16.6177 22.9286 16.9906 21.9222C16.9972 21.9057 17.0038 21.8892 17.0104 21.8727C17.1259 21.5658 17.2513 21.2919 17.38 21.0016C18.0597 19.4936 18.9243 17.5665 17.9377 12.9995C17.7463 12.1119 17.281 11.6565 16.7002 11.475C16.2647 11.3397 15.7532 11.3364 15.2285 11.4156C14.6675 11.5014 14.1066 11.673 13.605 11.8776C12.724 12.2373 12.0574 12.5409 12.0574 12.5673C12.0574 12.6531 12.0673 12.8478 12.0838 13.1084C12.1432 14.1149 12.2587 16.0651 11.9518 18.2759C11.8924 18.7082 11.8825 19.1273 11.9221 19.5299C12.031 20.6518 12.4996 21.6582 13.1958 22.4205C13.8822 23.1728 14.7896 23.6843 15.7862 23.8229C15.971 23.8427 16.1558 23.8559 16.3405 23.8559Z" fill="white"/>
<path d="M15.367 12.4783C15.3406 12.6729 15.7267 13.1976 16.2282 13.2669C16.7298 13.3362 17.1621 12.927 17.1885 12.7323C17.2149 12.5377 16.8288 12.3199 16.3272 12.2506C15.8257 12.1813 15.3934 12.2836 15.367 12.4783Z" fill="white"/>
<path d="M15.565 12.5046C15.5584 12.5475 15.6277 12.6597 15.7432 12.7818C15.8719 12.9171 16.0534 13.0392 16.2547 13.0689H16.258C16.456 13.0953 16.6408 13.0293 16.7794 12.9336C16.908 12.8478 16.9872 12.7554 16.9971 12.7026C16.9971 12.6927 16.9476 12.663 16.8651 12.6168C16.7299 12.5409 16.5319 12.4782 16.3042 12.4452H16.2976C16.0732 12.4155 15.8653 12.4221 15.7168 12.4584C15.6244 12.4815 15.565 12.498 15.565 12.5046ZM15.4561 13.0557C15.2614 12.8511 15.1525 12.6069 15.1723 12.4551V12.4485C15.1987 12.2604 15.367 12.1317 15.6244 12.0691C15.8191 12.0229 16.0765 12.013 16.3504 12.0493C16.3537 12.0493 16.357 12.0493 16.3603 12.0493C16.6375 12.0889 16.8849 12.168 17.0598 12.267C17.2908 12.3957 17.4195 12.5706 17.3931 12.7554C17.3733 12.9006 17.2248 13.1118 17.0037 13.2603C16.7959 13.4022 16.5121 13.5045 16.2052 13.4616H16.2019C15.8983 13.422 15.6376 13.2471 15.4561 13.0557Z" fill="white"/>
<path d="M30.6913 12.079C30.7177 12.2737 30.3316 12.7983 29.8301 12.8676C29.3252 12.9369 28.8962 12.5277 28.8698 12.3331C28.8434 12.1384 29.2295 11.9206 29.7344 11.8513C30.2326 11.782 30.6616 11.8843 30.6913 12.079Z" fill="white"/>
<path d="M30.787 12.0659C30.8035 12.1912 30.7045 12.4057 30.5297 12.5905C30.3614 12.7687 30.1172 12.9304 29.84 12.9667H29.8367C29.5595 13.003 29.3021 12.9106 29.1107 12.7819C28.9128 12.6499 28.7841 12.4684 28.7643 12.3463C28.7445 12.2044 28.8534 12.0659 29.0481 11.957C29.213 11.8646 29.4473 11.7887 29.7113 11.7524C29.9753 11.7161 30.2228 11.726 30.4076 11.7689C30.6254 11.8184 30.7672 11.9207 30.787 12.0659ZM30.3845 12.4519C30.5198 12.31 30.599 12.1648 30.5891 12.0922C30.5825 12.0395 30.4967 11.9933 30.3647 11.9603C30.203 11.9207 29.9819 11.9141 29.741 11.9471C29.5034 11.9801 29.2922 12.0494 29.147 12.1285C29.0283 12.1945 28.959 12.2638 28.9656 12.3166C28.9755 12.3892 29.0744 12.5113 29.2262 12.6136C29.3813 12.7192 29.5925 12.7951 29.8169 12.7654H29.8202C30.0413 12.7357 30.2426 12.6004 30.3845 12.4519Z" fill="white"/>
<path d="M31.8926 10.7525C31.8761 10.4225 32.1301 10.142 32.4601 10.1255C32.7901 10.109 33.0706 10.3631 33.0871 10.6931C33.1366 11.617 33.0244 12.3496 32.9056 13.1184C32.8165 13.6926 32.7241 14.2932 32.7043 14.963C32.6845 15.5999 32.767 16.306 32.8561 17.032C33.0871 18.9426 33.3313 20.9885 31.9124 23.1036C31.7276 23.3775 31.358 23.4501 31.0841 23.2686C30.8102 23.0838 30.7376 22.7143 30.9191 22.4404C32.0872 20.6948 31.8695 18.8766 31.6649 17.1739C31.5725 16.4149 31.4834 15.6758 31.5098 14.93C31.5329 14.1579 31.6286 13.5408 31.721 12.9435C31.8332 12.2242 31.9355 11.5444 31.8926 10.7525Z" fill="white"/>
</svg>
