<svg width="36" height="36" viewBox="0 0 36 36" fill="none" xmlns="http://www.w3.org/2000/svg">
<path d="M17.9388 0C9.4392 0 9.34789 3.29924 9.34789 3.97833C9.34789 5.00858 9.34789 8.1 9.34789 8.1H18.1024V9.33742C18.1024 9.33742 8.98724 9.33742 5.87062 9.33742C3.26913 9.33742 0 10.9191 0 17.9283C0 24.3668 2.55011 26.8567 5.12378 26.8567C5.88796 26.8567 8.18182 26.8567 8.18182 26.8567C8.18182 26.8567 8.18182 23.6608 8.18182 22.5612C8.18182 20.7641 9.07233 17.4374 13.2238 17.4374C18.4307 17.4374 19.7597 17.4374 21.9067 17.4374C23.1837 17.4374 26.785 16.8824 26.785 12.7227C26.785 8.32025 26.785 6.86782 26.785 4.79651C26.7853 3.76462 26.6089 0 17.9388 0ZM13.1115 2.77167C13.9827 2.77167 14.6867 3.47531 14.6867 4.34684C14.6867 5.21771 13.9827 5.922 13.1115 5.922C12.2403 5.922 11.5364 5.21804 11.5364 4.34684C11.5364 3.47531 12.2403 2.77167 13.1115 2.77167Z" fill="url(#paint0_linear_31_246)"/>
<path d="M18.0611 36C26.5568 36 26.6625 32.6385 26.6625 32.0216C26.6625 30.9914 26.6625 27.9 26.6625 27.9H17.8975V26.6625C17.8975 26.6625 27.0716 26.6625 30.1293 26.6625C32.7504 26.6625 35.9999 25.0412 35.9999 18.0716C35.9999 10.439 32.5511 9.14331 30.8761 9.14331C30.1116 9.14331 27.8181 9.14331 27.8181 9.14331C27.8181 9.14331 27.8181 12.4867 27.8181 13.4388C27.8181 15.2358 26.957 18.5625 22.7761 18.5625C17.5692 18.5625 16.4022 18.5625 14.0929 18.5625C12.8192 18.5625 9.2146 19.1831 9.2146 23.2772C9.2146 28.0145 9.2146 29.2549 9.2146 31.2035C9.2146 32.9151 10.2606 36 18.0611 36ZM22.8887 33.2283C22.0175 33.2283 21.3135 32.5243 21.3135 31.6531C21.3135 30.7819 22.0172 30.078 22.8887 30.078C23.7596 30.078 24.4639 30.7819 24.4639 31.6531C24.4639 32.5243 23.7596 33.2283 22.8887 33.2283Z" fill="url(#paint1_linear_31_246)"/>
<defs>
<linearGradient id="paint0_linear_31_246" x1="3.37369" y1="3.21585" x2="21.2681" y2="21.1702" gradientUnits="userSpaceOnUse">
<stop stop-color="#387EB8"/>
<stop offset="1" stop-color="#366994"/>
</linearGradient>
<linearGradient id="paint1_linear_31_246" x1="14.2484" y1="14.687" x2="33.4338" y2="33.0676" gradientUnits="userSpaceOnUse">
<stop stop-color="#FFE052"/>
<stop offset="1" stop-color="#FFC331"/>
</linearGradient>
</defs>
</svg>
