<svg width="51" height="53" viewBox="0 0 51 53" fill="none" xmlns="http://www.w3.org/2000/svg">
<path d="M25.4531 31.0241C28.0214 31.0241 30.1034 28.942 30.1034 26.3737C30.1034 23.8054 28.0214 21.7234 25.4531 21.7234C22.8848 21.7234 20.8027 23.8054 20.8027 26.3737C20.8027 28.942 22.8848 31.0241 25.4531 31.0241Z" fill="#61DAFB"/>
<path d="M25.453 35.9012C39.2342 35.9012 50.4061 31.6356 50.4061 26.3737C50.4061 21.1118 39.2342 16.8462 25.453 16.8462C11.6719 16.8462 0.5 21.1118 0.5 26.3737C0.5 31.6356 11.6719 35.9012 25.453 35.9012Z" stroke="#61DAFB"/>
<path d="M17.2019 31.1375C24.0925 43.0723 33.3726 50.6146 37.9295 47.9837C42.4864 45.3527 40.5946 33.5448 33.7041 21.61C26.8135 9.67511 17.5334 2.13281 12.9765 4.76376C8.41952 7.39471 10.3113 19.2026 17.2019 31.1375Z" stroke="#61DAFB"/>
<path d="M17.2018 21.6099C10.3112 33.5448 8.41937 45.3527 12.9763 47.9836C17.5333 50.6146 26.8133 43.0723 33.7039 31.1374C40.5945 19.2026 42.4863 7.39466 37.9293 4.76371C33.3724 2.13275 24.0923 9.67505 17.2018 21.6099Z" stroke="#61DAFB"/>
</svg>
