<svg width="46" height="46" viewBox="0 0 46 46" fill="none" xmlns="http://www.w3.org/2000/svg">
<path d="M45.7902 6.80841L24.2088 45.3996C23.7632 46.1964 22.6185 46.2011 22.1662 45.4082L0.156927 6.81212C-0.335793 5.94808 0.403062 4.90147 1.3822 5.07648L22.9866 8.93816C23.1245 8.96279 23.2656 8.96255 23.4034 8.93744L44.556 5.08202C45.5319 4.90416 46.2742 5.94266 45.7902 6.80841Z" fill="url(#paint0_linear_34_346)"/>
<path d="M33.2781 0.0113247L17.3072 3.14075C17.0447 3.19218 16.8504 3.41463 16.8346 3.6816L15.8521 20.274C15.829 20.6649 16.1879 20.9682 16.5694 20.8802L21.0159 19.854C21.4319 19.7581 21.8078 20.1245 21.7223 20.5429L20.4013 27.0118C20.3124 27.4472 20.7211 27.8195 21.1463 27.6904L23.8927 26.8559C24.3184 26.7267 24.7276 27.1 24.6375 27.5358L22.5381 37.6971C22.4067 38.3327 23.2522 38.6793 23.6047 38.1343L23.8403 37.7704L36.8542 11.7988C37.0721 11.364 36.6963 10.8681 36.2187 10.9603L31.6418 11.8436C31.2116 11.9265 30.8457 11.526 30.9671 11.1052L33.9544 0.749378C34.0759 0.327863 33.7087 -0.0730333 33.2781 0.0113247Z" fill="url(#paint1_linear_34_346)"/>
<defs>
<linearGradient id="paint0_linear_34_346" x1="-0.380446" y1="3.69729" x2="26.4792" y2="40.1749" gradientUnits="userSpaceOnUse">
<stop stop-color="#41D1FF"/>
<stop offset="1" stop-color="#BD34FE"/>
</linearGradient>
<linearGradient id="paint1_linear_34_346" x1="21.7467" y1="0.860957" x2="26.6055" y2="34.1917" gradientUnits="userSpaceOnUse">
<stop stop-color="#FFEA83"/>
<stop offset="0.0833333" stop-color="#FFDD35"/>
<stop offset="1" stop-color="#FFA800"/>
</linearGradient>
</defs>
</svg>
